<svg width="647" height="168" viewBox="0 0 647 168" fill="none" xmlns="http://www.w3.org/2000/svg">
<g id="Group 43840">
<g id="Group 43839">
<path id="The Best Platform" d="M36.816 21.328V28.56H24.912V66H15.952V28.56H4.048V21.328H36.816ZM61.4015 30.032C64.0895 30.032 66.4788 30.6293 68.5695 31.824C70.6602 32.976 72.2815 34.704 73.4335 37.008C74.6282 39.2693 75.2255 42 75.2255 45.2V66H66.2655V46.416C66.2655 43.6 65.5615 41.4453 64.1535 39.952C62.7455 38.416 60.8255 37.648 58.3935 37.648C55.9188 37.648 53.9562 38.416 52.5055 39.952C51.0975 41.4453 50.3935 43.6 50.3935 46.416V66H41.4335V18.64H50.3935V34.96C51.5455 33.424 53.0815 32.2293 55.0015 31.376C56.9215 30.48 59.0548 30.032 61.4015 30.032ZM114.786 47.504C114.786 48.784 114.701 49.936 114.53 50.96H88.61C88.8233 53.52 89.7193 55.5253 91.298 56.976C92.8767 58.4267 94.818 59.152 97.122 59.152C100.45 59.152 102.818 57.7227 104.226 54.864H113.89C112.866 58.2773 110.903 61.0933 108.002 63.312C105.101 65.488 101.538 66.576 97.314 66.576C93.9007 66.576 90.8287 65.8293 88.098 64.336C85.41 62.8 83.298 60.6453 81.762 57.872C80.2687 55.0987 79.522 51.8987 79.522 48.272C79.522 44.6027 80.2687 41.3813 81.762 38.608C83.2553 35.8347 85.346 33.7013 88.034 32.208C90.722 30.7147 93.8153 29.968 97.314 29.968C100.685 29.968 103.693 30.6933 106.338 32.144C109.026 33.5947 111.095 35.664 112.546 38.352C114.039 40.9973 114.786 44.048 114.786 47.504ZM105.506 44.944C105.463 42.64 104.631 40.8053 103.01 39.44C101.389 38.032 99.4047 37.328 97.058 37.328C94.8393 37.328 92.962 38.0107 91.426 39.376C89.9327 40.6987 89.0153 42.5547 88.674 44.944H105.506ZM158.08 43.088C160.597 43.5573 162.667 44.816 164.288 46.864C165.909 48.912 166.72 51.2587 166.72 53.904C166.72 56.2933 166.123 58.4053 164.928 60.24C163.776 62.032 162.091 63.44 159.872 64.464C157.653 65.488 155.029 66 152 66H132.736V21.328H151.168C154.197 21.328 156.8 21.8187 158.976 22.8C161.195 23.7813 162.859 25.1467 163.968 26.896C165.12 28.6453 165.696 30.6293 165.696 32.848C165.696 35.4507 164.992 37.6267 163.584 39.376C162.219 41.1253 160.384 42.3627 158.08 43.088ZM141.696 39.76H149.888C152.021 39.76 153.664 39.2907 154.816 38.352C155.968 37.3707 156.544 35.984 156.544 34.192C156.544 32.4 155.968 31.0133 154.816 30.032C153.664 29.0507 152.021 28.56 149.888 28.56H141.696V39.76ZM150.72 58.704C152.896 58.704 154.581 58.192 155.776 57.168C157.013 56.144 157.632 54.6933 157.632 52.816C157.632 50.896 156.992 49.4027 155.712 48.336C154.432 47.2267 152.704 46.672 150.528 46.672H141.696V58.704H150.72ZM204.901 47.504C204.901 48.784 204.816 49.936 204.645 50.96H178.725C178.938 53.52 179.834 55.5253 181.413 56.976C182.992 58.4267 184.933 59.152 187.237 59.152C190.565 59.152 192.933 57.7227 194.341 54.864H204.005C202.981 58.2773 201.018 61.0933 198.117 63.312C195.216 65.488 191.653 66.576 187.429 66.576C184.016 66.576 180.944 65.8293 178.213 64.336C175.525 62.8 173.413 60.6453 171.877 57.872C170.384 55.0987 169.637 51.8987 169.637 48.272C169.637 44.6027 170.384 41.3813 171.877 38.608C173.37 35.8347 175.461 33.7013 178.149 32.208C180.837 30.7147 183.93 29.968 187.429 29.968C190.8 29.968 193.808 30.6933 196.453 32.144C199.141 33.5947 201.21 35.664 202.661 38.352C204.154 40.9973 204.901 44.048 204.901 47.504ZM195.621 44.944C195.578 42.64 194.746 40.8053 193.125 39.44C191.504 38.032 189.52 37.328 187.173 37.328C184.954 37.328 183.077 38.0107 181.541 39.376C180.048 40.6987 179.13 42.5547 178.789 44.944H195.621ZM223.089 66.576C220.188 66.576 217.585 66.064 215.281 65.04C212.977 63.9733 211.142 62.544 209.777 60.752C208.454 58.96 207.729 56.976 207.601 54.8H216.625C216.796 56.1653 217.457 57.296 218.609 58.192C219.804 59.088 221.276 59.536 223.025 59.536C224.732 59.536 226.054 59.1947 226.993 58.512C227.974 57.8293 228.465 56.9547 228.465 55.888C228.465 54.736 227.868 53.8827 226.673 53.328C225.521 52.7307 223.665 52.0907 221.105 51.408C218.46 50.768 216.284 50.1067 214.577 49.424C212.913 48.7413 211.462 47.696 210.225 46.288C209.03 44.88 208.433 42.9813 208.433 40.592C208.433 38.6293 208.988 36.8373 210.097 35.216C211.249 33.5947 212.87 32.3147 214.961 31.376C217.094 30.4373 219.59 29.968 222.449 29.968C226.673 29.968 230.044 31.0347 232.561 33.168C235.078 35.2587 236.465 38.096 236.721 41.68H228.145C228.017 40.272 227.42 39.1627 226.353 38.352C225.329 37.4987 223.942 37.072 222.193 37.072C220.572 37.072 219.313 37.3707 218.417 37.968C217.564 38.5653 217.137 39.3973 217.137 40.464C217.137 41.6587 217.734 42.576 218.929 43.216C220.124 43.8133 221.98 44.432 224.497 45.072C227.057 45.712 229.169 46.3733 230.833 47.056C232.497 47.7387 233.926 48.8053 235.121 50.256C236.358 51.664 236.998 53.5413 237.041 55.888C237.041 57.936 236.465 59.7707 235.313 61.392C234.204 63.0133 232.582 64.2933 230.449 65.232C228.358 66.128 225.905 66.576 223.089 66.576ZM252.908 37.904V55.056C252.908 56.2507 253.185 57.1253 253.74 57.68C254.337 58.192 255.319 58.448 256.684 58.448H260.844V66H255.212C247.66 66 243.884 62.3307 243.884 54.992V37.904H239.66V30.544H243.884V21.776H252.908V30.544H260.844V37.904H252.908ZM311.275 35.152C311.275 37.5413 310.699 39.7813 309.547 41.872C308.437 43.9627 306.667 45.648 304.235 46.928C301.845 48.208 298.816 48.848 295.147 48.848H287.659V66H278.699V21.328H295.147C298.603 21.328 301.547 21.9253 303.979 23.12C306.411 24.3147 308.224 25.9573 309.419 28.048C310.656 30.1387 311.275 32.5067 311.275 35.152ZM294.763 41.616C297.237 41.616 299.072 41.0613 300.267 39.952C301.461 38.8 302.059 37.2 302.059 35.152C302.059 30.8 299.627 28.624 294.763 28.624H287.659V41.616H294.763ZM324.676 18.64V66H315.716V18.64H324.676ZM329.305 48.144C329.305 44.56 330.009 41.3813 331.417 38.608C332.867 35.8347 334.809 33.7013 337.241 32.208C339.715 30.7147 342.467 29.968 345.497 29.968C348.142 29.968 350.446 30.5013 352.409 31.568C354.414 32.6347 356.014 33.9787 357.209 35.6V30.544H366.233V66H357.209V60.816C356.057 62.48 354.457 63.8667 352.409 64.976C350.403 66.0427 348.078 66.576 345.433 66.576C342.446 66.576 339.715 65.808 337.241 64.272C334.809 62.736 332.867 60.5813 331.417 57.808C330.009 54.992 329.305 51.7707 329.305 48.144ZM357.209 48.272C357.209 46.096 356.782 44.24 355.929 42.704C355.075 41.1253 353.923 39.9307 352.473 39.12C351.022 38.2667 349.465 37.84 347.801 37.84C346.137 37.84 344.601 38.2453 343.193 39.056C341.785 39.8667 340.633 41.0613 339.737 42.64C338.883 44.176 338.457 46.0107 338.457 48.144C338.457 50.2773 338.883 52.1547 339.737 53.776C340.633 55.3547 341.785 56.5707 343.193 57.424C344.643 58.2773 346.179 58.704 347.801 58.704C349.465 58.704 351.022 58.2987 352.473 57.488C353.923 56.6347 355.075 55.44 355.929 53.904C356.782 52.3253 357.209 50.448 357.209 48.272ZM383.495 37.904V55.056C383.495 56.2507 383.773 57.1253 384.327 57.68C384.925 58.192 385.906 58.448 387.271 58.448H391.431V66H385.799C378.247 66 374.471 62.3307 374.471 54.992V37.904H370.247V30.544H374.471V21.776H383.495V30.544H391.431V37.904H383.495ZM412.212 37.904H406.004V66H396.916V37.904H392.884V30.544H396.916V28.752C396.916 24.4 398.153 21.2 400.628 19.152C403.103 17.104 406.836 16.144 411.828 16.272V23.824C409.652 23.7813 408.137 24.144 407.284 24.912C406.431 25.68 406.004 27.0667 406.004 29.072V30.544H412.212V37.904ZM431.842 66.576C428.429 66.576 425.357 65.8293 422.626 64.336C419.896 62.8 417.741 60.6453 416.162 57.872C414.626 55.0987 413.858 51.8987 413.858 48.272C413.858 44.6453 414.648 41.4453 416.226 38.672C417.848 35.8987 420.045 33.7653 422.818 32.272C425.592 30.736 428.685 29.968 432.098 29.968C435.512 29.968 438.605 30.736 441.378 32.272C444.152 33.7653 446.328 35.8987 447.906 38.672C449.528 41.4453 450.338 44.6453 450.338 48.272C450.338 51.8987 449.506 55.0987 447.842 57.872C446.221 60.6453 444.002 62.8 441.186 64.336C438.413 65.8293 435.298 66.576 431.842 66.576ZM431.842 58.768C433.464 58.768 434.978 58.384 436.386 57.616C437.837 56.8053 438.989 55.6107 439.842 54.032C440.696 52.4533 441.122 50.5333 441.122 48.272C441.122 44.9013 440.226 42.32 438.434 40.528C436.685 38.6933 434.53 37.776 431.97 37.776C429.41 37.776 427.256 38.6933 425.506 40.528C423.8 42.32 422.946 44.9013 422.946 48.272C422.946 51.6427 423.778 54.2453 425.442 56.08C427.149 57.872 429.282 58.768 431.842 58.768ZM463.951 36.048C465.103 34.1707 466.596 32.6987 468.431 31.632C470.308 30.5653 472.442 30.032 474.831 30.032V39.44H472.463C469.647 39.44 467.514 40.1013 466.063 41.424C464.655 42.7467 463.951 45.0507 463.951 48.336V66H454.991V30.544H463.951V36.048ZM522.978 30.032C527.33 30.032 530.829 31.376 533.474 34.064C536.162 36.7093 537.506 40.4213 537.506 45.2V66H528.546V46.416C528.546 43.6427 527.842 41.5307 526.434 40.08C525.026 38.5867 523.106 37.84 520.674 37.84C518.242 37.84 516.301 38.5867 514.85 40.08C513.442 41.5307 512.738 43.6427 512.738 46.416V66H503.778V46.416C503.778 43.6427 503.074 41.5307 501.666 40.08C500.258 38.5867 498.338 37.84 495.906 37.84C493.431 37.84 491.469 38.5867 490.018 40.08C488.61 41.5307 487.906 43.6427 487.906 46.416V66H478.946V30.544H487.906V34.832C489.058 33.3387 490.53 32.1653 492.322 31.312C494.157 30.4587 496.162 30.032 498.338 30.032C501.111 30.032 503.586 30.6293 505.762 31.824C507.938 32.976 509.623 34.64 510.818 36.816C511.97 34.768 513.634 33.1253 515.81 31.888C518.029 30.6507 520.418 30.032 522.978 30.032Z" fill="#0F2137"/>
<path id="Union" fill-rule="evenodd" clip-rule="evenodd" d="M536.143 23.2676C540.461 12.1146 548.35 -3.13749 555.427 0.566492C562.714 4.37984 549.914 16.23 539.077 25.3103C537.555 26.5855 535.426 25.1192 536.143 23.2676ZM544.069 30.8751C550.031 26.3765 557.925 21.859 560.432 25.8134C563.051 29.945 554.001 32.3965 545.512 33.9994C543.561 34.3678 542.484 32.0711 544.069 30.8751Z" fill="#1AC587"/>
<path id="Ecomerce at its finest" d="M12.752 95.128V110.04H29.008V114.84H12.752V130.2H30.928V135H6.928V90.328H30.928V95.128H12.752ZM35.6445 117.4C35.6445 113.773 36.3698 110.616 37.8205 107.928C39.2712 105.197 41.2765 103.085 43.8365 101.592C46.4392 100.099 49.4045 99.352 52.7325 99.352C57.0418 99.352 60.5832 100.397 63.3565 102.488C66.1725 104.579 68.0285 107.48 68.9245 111.192H62.6525C62.0552 109.059 60.8818 107.373 59.1325 106.136C57.4258 104.899 55.2925 104.28 52.7325 104.28C49.4045 104.28 46.7165 105.432 44.6685 107.736C42.6205 109.997 41.5965 113.219 41.5965 117.4C41.5965 121.624 42.6205 124.888 44.6685 127.192C46.7165 129.496 49.4045 130.648 52.7325 130.648C55.2925 130.648 57.4258 130.051 59.1325 128.856C60.8392 127.661 62.0125 125.955 62.6525 123.736H68.9245C67.9858 127.32 66.1085 130.2 63.2925 132.376C60.4765 134.509 56.9565 135.576 52.7325 135.576C49.4045 135.576 46.4392 134.829 43.8365 133.336C41.2765 131.843 39.2712 129.731 37.8205 127C36.3698 124.269 35.6445 121.069 35.6445 117.4ZM90.0715 135.576C86.7862 135.576 83.7995 134.829 81.1115 133.336C78.4662 131.843 76.3755 129.731 74.8395 127C73.3462 124.227 72.5995 121.027 72.5995 117.4C72.5995 113.816 73.3675 110.659 74.9035 107.928C76.4822 105.155 78.6155 103.043 81.3035 101.592C83.9915 100.099 86.9995 99.352 90.3275 99.352C93.6555 99.352 96.6635 100.099 99.3515 101.592C102.04 103.043 104.152 105.133 105.688 107.864C107.266 110.595 108.056 113.773 108.056 117.4C108.056 121.027 107.245 124.227 105.624 127C104.045 129.731 101.89 131.843 99.1595 133.336C96.4288 134.829 93.3995 135.576 90.0715 135.576ZM90.0715 130.456C92.1622 130.456 94.1248 129.965 95.9595 128.984C97.7942 128.003 99.2662 126.531 100.376 124.568C101.528 122.605 102.104 120.216 102.104 117.4C102.104 114.584 101.549 112.195 100.44 110.232C99.3302 108.269 97.8795 106.819 96.0875 105.88C94.2955 104.899 92.3542 104.408 90.2635 104.408C88.1302 104.408 86.1675 104.899 84.3755 105.88C82.6262 106.819 81.2182 108.269 80.1515 110.232C79.0848 112.195 78.5515 114.584 78.5515 117.4C78.5515 120.259 79.0635 122.669 80.0875 124.632C81.1542 126.595 82.5622 128.067 84.3115 129.048C86.0608 129.987 87.9808 130.456 90.0715 130.456ZM155.969 99.288C158.7 99.288 161.132 99.864 163.265 101.016C165.398 102.125 167.084 103.811 168.321 106.072C169.558 108.333 170.177 111.085 170.177 114.328V135H164.417V115.16C164.417 111.661 163.542 108.995 161.793 107.16C160.086 105.283 157.761 104.344 154.817 104.344C151.788 104.344 149.377 105.325 147.585 107.288C145.793 109.208 144.897 112.003 144.897 115.672V135H139.137V115.16C139.137 111.661 138.262 108.995 136.513 107.16C134.806 105.283 132.481 104.344 129.537 104.344C126.508 104.344 124.097 105.325 122.305 107.288C120.513 109.208 119.617 112.003 119.617 115.672V135H113.793V99.928H119.617V104.984C120.769 103.149 122.305 101.741 124.225 100.76C126.188 99.7787 128.342 99.288 130.689 99.288C133.633 99.288 136.236 99.9493 138.497 101.272C140.758 102.595 142.444 104.536 143.553 107.096C144.534 104.621 146.156 102.701 148.417 101.336C150.678 99.9707 153.196 99.288 155.969 99.288ZM209.811 116.12C209.811 117.229 209.747 118.403 209.619 119.64H181.587C181.8 123.096 182.973 125.805 185.107 127.768C187.283 129.688 189.907 130.648 192.979 130.648C195.496 130.648 197.587 130.072 199.251 128.92C200.957 127.725 202.152 126.147 202.835 124.184H209.107C208.168 127.555 206.291 130.307 203.475 132.44C200.659 134.531 197.16 135.576 192.979 135.576C189.651 135.576 186.664 134.829 184.019 133.336C181.416 131.843 179.368 129.731 177.875 127C176.381 124.227 175.635 121.027 175.635 117.4C175.635 113.773 176.36 110.595 177.811 107.864C179.261 105.133 181.288 103.043 183.891 101.592C186.536 100.099 189.565 99.352 192.979 99.352C196.307 99.352 199.251 100.077 201.811 101.528C204.371 102.979 206.333 104.984 207.699 107.544C209.107 110.061 209.811 112.92 209.811 116.12ZM203.795 114.904C203.795 112.685 203.304 110.787 202.323 109.208C201.341 107.587 199.997 106.371 198.291 105.56C196.627 104.707 194.771 104.28 192.723 104.28C189.779 104.28 187.261 105.219 185.171 107.096C183.123 108.973 181.949 111.576 181.651 114.904H203.795ZM221.402 105.624C222.426 103.619 223.877 102.061 225.754 100.952C227.674 99.8427 229.999 99.288 232.73 99.288V105.304H231.194C224.666 105.304 221.402 108.845 221.402 115.928V135H215.578V99.928H221.402V105.624ZM235.357 117.4C235.357 113.773 236.082 110.616 237.533 107.928C238.984 105.197 240.989 103.085 243.549 101.592C246.152 100.099 249.117 99.352 252.445 99.352C256.754 99.352 260.296 100.397 263.069 102.488C265.885 104.579 267.741 107.48 268.637 111.192H262.365C261.768 109.059 260.594 107.373 258.845 106.136C257.138 104.899 255.005 104.28 252.445 104.28C249.117 104.28 246.429 105.432 244.381 107.736C242.333 109.997 241.309 113.219 241.309 117.4C241.309 121.624 242.333 124.888 244.381 127.192C246.429 129.496 249.117 130.648 252.445 130.648C255.005 130.648 257.138 130.051 258.845 128.856C260.552 127.661 261.725 125.955 262.365 123.736H268.637C267.698 127.32 265.821 130.2 263.005 132.376C260.189 134.509 256.669 135.576 252.445 135.576C249.117 135.576 246.152 134.829 243.549 133.336C240.989 131.843 238.984 129.731 237.533 127C236.082 124.269 235.357 121.069 235.357 117.4ZM306.488 116.12C306.488 117.229 306.424 118.403 306.296 119.64H278.264C278.477 123.096 279.651 125.805 281.784 127.768C283.96 129.688 286.584 130.648 289.656 130.648C292.173 130.648 294.264 130.072 295.928 128.92C297.635 127.725 298.829 126.147 299.512 124.184H305.784C304.845 127.555 302.968 130.307 300.152 132.44C297.336 134.531 293.837 135.576 289.656 135.576C286.328 135.576 283.341 134.829 280.696 133.336C278.093 131.843 276.045 129.731 274.552 127C273.059 124.227 272.312 121.027 272.312 117.4C272.312 113.773 273.037 110.595 274.488 107.864C275.939 105.133 277.965 103.043 280.568 101.592C283.213 100.099 286.243 99.352 289.656 99.352C292.984 99.352 295.928 100.077 298.488 101.528C301.048 102.979 303.011 104.984 304.376 107.544C305.784 110.061 306.488 112.92 306.488 116.12ZM300.472 114.904C300.472 112.685 299.981 110.787 299 109.208C298.019 107.587 296.675 106.371 294.968 105.56C293.304 104.707 291.448 104.28 289.4 104.28C286.456 104.28 283.939 105.219 281.848 107.096C279.8 108.973 278.627 111.576 278.328 114.904H300.472ZM325.222 117.336C325.222 113.752 325.947 110.616 327.398 107.928C328.849 105.197 330.833 103.085 333.35 101.592C335.91 100.099 338.747 99.352 341.862 99.352C344.934 99.352 347.601 100.013 349.862 101.336C352.123 102.659 353.809 104.323 354.918 106.328V99.928H360.806V135H354.918V128.472C353.766 130.52 352.038 132.227 349.734 133.592C347.473 134.915 344.827 135.576 341.798 135.576C338.683 135.576 335.867 134.808 333.35 133.272C330.833 131.736 328.849 129.581 327.398 126.808C325.947 124.035 325.222 120.877 325.222 117.336ZM354.918 117.4C354.918 114.755 354.385 112.451 353.318 110.488C352.251 108.525 350.801 107.032 348.966 106.008C347.174 104.941 345.19 104.408 343.014 104.408C340.838 104.408 338.854 104.92 337.062 105.944C335.27 106.968 333.841 108.461 332.774 110.424C331.707 112.387 331.174 114.691 331.174 117.336C331.174 120.024 331.707 122.371 332.774 124.376C333.841 126.339 335.27 127.853 337.062 128.92C338.854 129.944 340.838 130.456 343.014 130.456C345.19 130.456 347.174 129.944 348.966 128.92C350.801 127.853 352.251 126.339 353.318 124.376C354.385 122.371 354.918 120.045 354.918 117.4ZM375.832 104.728V125.4C375.832 127.107 376.195 128.323 376.92 129.048C377.645 129.731 378.904 130.072 380.696 130.072H384.984V135H379.736C376.493 135 374.061 134.253 372.44 132.76C370.819 131.267 370.008 128.813 370.008 125.4V104.728H365.464V99.928H370.008V91.096H375.832V99.928H384.984V104.728H375.832ZM408.271 94.232C407.162 94.232 406.223 93.848 405.455 93.08C404.687 92.312 404.303 91.3733 404.303 90.264C404.303 89.1547 404.687 88.216 405.455 87.448C406.223 86.68 407.162 86.296 408.271 86.296C409.338 86.296 410.234 86.68 410.959 87.448C411.727 88.216 412.111 89.1547 412.111 90.264C412.111 91.3733 411.727 92.312 410.959 93.08C410.234 93.848 409.338 94.232 408.271 94.232ZM411.087 99.928V135H405.263V99.928H411.087ZM426.197 104.728V125.4C426.197 127.107 426.56 128.323 427.285 129.048C428.01 129.731 429.269 130.072 431.061 130.072H435.349V135H430.101C426.858 135 424.426 134.253 422.805 132.76C421.184 131.267 420.373 128.813 420.373 125.4V104.728H415.829V99.928H420.373V91.096H426.197V99.928H435.349V104.728H426.197ZM452.901 135.576C450.213 135.576 447.803 135.128 445.669 134.232C443.536 133.293 441.851 132.013 440.613 130.392C439.376 128.728 438.693 126.829 438.565 124.696H444.581C444.752 126.445 445.563 127.875 447.013 128.984C448.507 130.093 450.448 130.648 452.837 130.648C455.056 130.648 456.805 130.157 458.085 129.176C459.365 128.195 460.005 126.957 460.005 125.464C460.005 123.928 459.323 122.797 457.957 122.072C456.592 121.304 454.48 120.557 451.621 119.832C449.019 119.149 446.885 118.467 445.221 117.784C443.6 117.059 442.192 116.013 440.997 114.648C439.845 113.24 439.269 111.405 439.269 109.144C439.269 107.352 439.803 105.709 440.869 104.216C441.936 102.723 443.451 101.549 445.413 100.696C447.376 99.8 449.616 99.352 452.133 99.352C456.016 99.352 459.152 100.333 461.541 102.296C463.931 104.259 465.211 106.947 465.381 110.36H459.557C459.429 108.525 458.683 107.053 457.317 105.944C455.995 104.835 454.203 104.28 451.941 104.28C449.851 104.28 448.187 104.728 446.949 105.624C445.712 106.52 445.093 107.693 445.093 109.144C445.093 110.296 445.456 111.256 446.181 112.024C446.949 112.749 447.888 113.347 448.997 113.816C450.149 114.243 451.728 114.733 453.733 115.288C456.251 115.971 458.299 116.653 459.877 117.336C461.456 117.976 462.8 118.957 463.909 120.28C465.061 121.603 465.659 123.331 465.701 125.464C465.701 127.384 465.168 129.112 464.101 130.648C463.035 132.184 461.52 133.4 459.557 134.296C457.637 135.149 455.419 135.576 452.901 135.576ZM501.417 104.728H494.057V135H488.233V104.728H483.689V99.928H488.233V97.432C488.233 93.5067 489.236 90.648 491.241 88.856C493.289 87.0213 496.553 86.104 501.033 86.104V90.968C498.473 90.968 496.66 91.48 495.593 92.504C494.569 93.4853 494.057 95.128 494.057 97.432V99.928H501.417V104.728ZM509.296 94.232C508.187 94.232 507.248 93.848 506.48 93.08C505.712 92.312 505.328 91.3733 505.328 90.264C505.328 89.1547 505.712 88.216 506.48 87.448C507.248 86.68 508.187 86.296 509.296 86.296C510.363 86.296 511.259 86.68 511.984 87.448C512.752 88.216 513.136 89.1547 513.136 90.264C513.136 91.3733 512.752 92.312 511.984 93.08C511.259 93.848 510.363 94.232 509.296 94.232ZM512.112 99.928V135H506.288V99.928H512.112ZM537.206 99.288C541.473 99.288 544.929 100.589 547.574 103.192C550.219 105.752 551.542 109.464 551.542 114.328V135H545.782V115.16C545.782 111.661 544.907 108.995 543.158 107.16C541.409 105.283 539.019 104.344 535.99 104.344C532.918 104.344 530.465 105.304 528.63 107.224C526.838 109.144 525.942 111.939 525.942 115.608V135H520.118V99.928H525.942V104.92C527.094 103.128 528.651 101.741 530.614 100.76C532.619 99.7787 534.817 99.288 537.206 99.288ZM591.136 116.12C591.136 117.229 591.072 118.403 590.944 119.64H562.912C563.125 123.096 564.298 125.805 566.432 127.768C568.608 129.688 571.232 130.648 574.304 130.648C576.821 130.648 578.912 130.072 580.576 128.92C582.282 127.725 583.477 126.147 584.16 124.184H590.432C589.493 127.555 587.616 130.307 584.8 132.44C581.984 134.531 578.485 135.576 574.304 135.576C570.976 135.576 567.989 134.829 565.344 133.336C562.741 131.843 560.693 129.731 559.2 127C557.706 124.227 556.96 121.027 556.96 117.4C556.96 113.773 557.685 110.595 559.136 107.864C560.586 105.133 562.613 103.043 565.216 101.592C567.861 100.099 570.89 99.352 574.304 99.352C577.632 99.352 580.576 100.077 583.136 101.528C585.696 102.979 587.658 104.984 589.024 107.544C590.432 110.061 591.136 112.92 591.136 116.12ZM585.12 114.904C585.12 112.685 584.629 110.787 583.648 109.208C582.666 107.587 581.322 106.371 579.616 105.56C577.952 104.707 576.096 104.28 574.048 104.28C571.104 104.28 568.586 105.219 566.496 107.096C564.448 108.973 563.274 111.576 562.976 114.904H585.12ZM609.319 135.576C606.631 135.576 604.22 135.128 602.087 134.232C599.954 133.293 598.268 132.013 597.031 130.392C595.794 128.728 595.111 126.829 594.983 124.696H600.999C601.17 126.445 601.98 127.875 603.431 128.984C604.924 130.093 606.866 130.648 609.255 130.648C611.474 130.648 613.223 130.157 614.503 129.176C615.783 128.195 616.423 126.957 616.423 125.464C616.423 123.928 615.74 122.797 614.375 122.072C613.01 121.304 610.898 120.557 608.039 119.832C605.436 119.149 603.303 118.467 601.639 117.784C600.018 117.059 598.61 116.013 597.415 114.648C596.263 113.24 595.687 111.405 595.687 109.144C595.687 107.352 596.22 105.709 597.287 104.216C598.354 102.723 599.868 101.549 601.831 100.696C603.794 99.8 606.034 99.352 608.551 99.352C612.434 99.352 615.57 100.333 617.959 102.296C620.348 104.259 621.628 106.947 621.799 110.36H615.975C615.847 108.525 615.1 107.053 613.735 105.944C612.412 104.835 610.62 104.28 608.359 104.28C606.268 104.28 604.604 104.728 603.367 105.624C602.13 106.52 601.511 107.693 601.511 109.144C601.511 110.296 601.874 111.256 602.599 112.024C603.367 112.749 604.306 113.347 605.415 113.816C606.567 114.243 608.146 114.733 610.151 115.288C612.668 115.971 614.716 116.653 616.295 117.336C617.874 117.976 619.218 118.957 620.327 120.28C621.479 121.603 622.076 123.331 622.119 125.464C622.119 127.384 621.586 129.112 620.519 130.648C619.452 132.184 617.938 133.4 615.975 134.296C614.055 135.149 611.836 135.576 609.319 135.576ZM635.524 104.728V125.4C635.524 127.107 635.887 128.323 636.612 129.048C637.338 129.731 638.596 130.072 640.388 130.072H644.676V135H639.428C636.186 135 633.754 134.253 632.132 132.76C630.511 131.267 629.7 128.813 629.7 125.4V104.728H625.156V99.928H629.7V91.096H635.524V99.928H644.676V104.728H635.524Z" fill="#6337BE"/>
</g>
<path id="Vector" d="M2 166C91.9468 149.795 240.966 150.294 305 159.019" stroke="#6337BE" stroke-width="4" stroke-linecap="round" stroke-linejoin="round"/>
</g>
</svg>
