<svg width="295" height="106" viewBox="0 0 295 106" fill="none" xmlns="http://www.w3.org/2000/svg">
<path d="M17.5099 30.664V34.28H11.5579V53H7.07787V34.28H1.12587V30.664H17.5099ZM29.8026 35.016C31.1466 35.016 32.3413 35.3147 33.3866 35.912C34.432 36.488 35.2426 37.352 35.8186 38.504C36.416 39.6347 36.7146 41 36.7146 42.6V53H32.2346V43.208C32.2346 41.8 31.8826 40.7227 31.1786 39.976C30.4746 39.208 29.5146 38.824 28.2986 38.824C27.0613 38.824 26.08 39.208 25.3546 39.976C24.6506 40.7227 24.2986 41.8 24.2986 43.208V53H19.8186V29.32H24.2986V37.48C24.8746 36.712 25.6426 36.1147 26.6026 35.688C27.5626 35.24 28.6293 35.016 29.8026 35.016ZM56.4949 43.752C56.4949 44.392 56.4522 44.968 56.3669 45.48H43.4069C43.5135 46.76 43.9615 47.7627 44.7509 48.488C45.5402 49.2133 46.5109 49.576 47.6629 49.576C49.3269 49.576 50.5109 48.8613 51.2149 47.432H56.0469C55.5349 49.1387 54.5535 50.5467 53.1029 51.656C51.6522 52.744 49.8709 53.288 47.7589 53.288C46.0522 53.288 44.5162 52.9147 43.1509 52.168C41.8069 51.4 40.7509 50.3227 39.9829 48.936C39.2362 47.5493 38.8629 45.9493 38.8629 44.136C38.8629 42.3013 39.2362 40.6907 39.9829 39.304C40.7295 37.9173 41.7749 36.8507 43.1189 36.104C44.4629 35.3573 46.0095 34.984 47.7589 34.984C49.4442 34.984 50.9482 35.3467 52.2709 36.072C53.6149 36.7973 54.6495 37.832 55.3749 39.176C56.1215 40.4987 56.4949 42.024 56.4949 43.752ZM51.8549 42.472C51.8335 41.32 51.4175 40.4027 50.6069 39.72C49.7962 39.016 48.8042 38.664 47.6309 38.664C46.5215 38.664 45.5829 39.0053 44.8149 39.688C44.0682 40.3493 43.6095 41.2773 43.4389 42.472H51.8549ZM78.1419 41.544C79.4005 41.7787 80.4352 42.408 81.2459 43.432C82.0565 44.456 82.4619 45.6293 82.4619 46.952C82.4619 48.1467 82.1632 49.2027 81.5659 50.12C80.9899 51.016 80.1472 51.72 79.0379 52.232C77.9285 52.744 76.6165 53 75.1019 53H65.4699V30.664H74.6859C76.2005 30.664 77.5019 30.9093 78.5899 31.4C79.6992 31.8907 80.5312 32.5733 81.0859 33.448C81.6619 34.3227 81.9499 35.3147 81.9499 36.424C81.9499 37.7253 81.5979 38.8133 80.8939 39.688C80.2112 40.5627 79.2939 41.1813 78.1419 41.544ZM69.9499 39.88H74.0459C75.1125 39.88 75.9339 39.6453 76.5099 39.176C77.0859 38.6853 77.3739 37.992 77.3739 37.096C77.3739 36.2 77.0859 35.5067 76.5099 35.016C75.9339 34.5253 75.1125 34.28 74.0459 34.28H69.9499V39.88ZM74.4619 49.352C75.5499 49.352 76.3925 49.096 76.9899 48.584C77.6085 48.072 77.9179 47.3467 77.9179 46.408C77.9179 45.448 77.5979 44.7013 76.9579 44.168C76.3179 43.6133 75.4539 43.336 74.3659 43.336H69.9499V49.352H74.4619ZM101.552 43.752C101.552 44.392 101.51 44.968 101.424 45.48H88.4644C88.571 46.76 89.019 47.7627 89.8084 48.488C90.5977 49.2133 91.5684 49.576 92.7204 49.576C94.3844 49.576 95.5684 48.8613 96.2724 47.432H101.104C100.592 49.1387 99.611 50.5467 98.1604 51.656C96.7097 52.744 94.9284 53.288 92.8164 53.288C91.1097 53.288 89.5737 52.9147 88.2084 52.168C86.8644 51.4 85.8084 50.3227 85.0404 48.936C84.2937 47.5493 83.9204 45.9493 83.9204 44.136C83.9204 42.3013 84.2937 40.6907 85.0404 39.304C85.787 37.9173 86.8324 36.8507 88.1764 36.104C89.5204 35.3573 91.067 34.984 92.8164 34.984C94.5017 34.984 96.0057 35.3467 97.3284 36.072C98.6724 36.7973 99.707 37.832 100.432 39.176C101.179 40.4987 101.552 42.024 101.552 43.752ZM96.9124 42.472C96.891 41.32 96.475 40.4027 95.6644 39.72C94.8537 39.016 93.8617 38.664 92.6884 38.664C91.579 38.664 90.6404 39.0053 89.8724 39.688C89.1257 40.3493 88.667 41.2773 88.4964 42.472H96.9124ZM110.646 53.288C109.196 53.288 107.894 53.032 106.742 52.52C105.59 51.9867 104.673 51.272 103.99 50.376C103.329 49.48 102.966 48.488 102.902 47.4H107.414C107.5 48.0827 107.83 48.648 108.406 49.096C109.004 49.544 109.74 49.768 110.614 49.768C111.468 49.768 112.129 49.5973 112.598 49.256C113.089 48.9147 113.334 48.4773 113.334 47.944C113.334 47.368 113.036 46.9413 112.438 46.664C111.862 46.3653 110.934 46.0453 109.654 45.704C108.332 45.384 107.244 45.0533 106.39 44.712C105.558 44.3707 104.833 43.848 104.214 43.144C103.617 42.44 103.318 41.4907 103.318 40.296C103.318 39.3147 103.596 38.4187 104.15 37.608C104.726 36.7973 105.537 36.1573 106.582 35.688C107.649 35.2187 108.897 34.984 110.326 34.984C112.438 34.984 114.124 35.5173 115.382 36.584C116.641 37.6293 117.334 39.048 117.462 40.84H113.174C113.11 40.136 112.812 39.5813 112.278 39.176C111.766 38.7493 111.073 38.536 110.198 38.536C109.388 38.536 108.758 38.6853 108.31 38.984C107.884 39.2827 107.67 39.6987 107.67 40.232C107.67 40.8293 107.969 41.288 108.566 41.608C109.164 41.9067 110.092 42.216 111.35 42.536C112.63 42.856 113.686 43.1867 114.518 43.528C115.35 43.8693 116.065 44.4027 116.662 45.128C117.281 45.832 117.601 46.7707 117.622 47.944C117.622 48.968 117.334 49.8853 116.758 50.696C116.204 51.5067 115.393 52.1467 114.326 52.616C113.281 53.064 112.054 53.288 110.646 53.288ZM125.556 38.952V47.528C125.556 48.1253 125.695 48.5627 125.972 48.84C126.271 49.096 126.761 49.224 127.444 49.224H129.524V53H126.708C122.932 53 121.044 51.1653 121.044 47.496V38.952H118.932V35.272H121.044V30.888H125.556V35.272H129.524V38.952H125.556ZM154.739 37.576C154.739 38.7707 154.451 39.8907 153.875 40.936C153.32 41.9813 152.435 42.824 151.219 43.464C150.024 44.104 148.51 44.424 146.675 44.424H142.931V53H138.451V30.664H146.675C148.403 30.664 149.875 30.9627 151.091 31.56C152.307 32.1573 153.214 32.9787 153.811 34.024C154.43 35.0693 154.739 36.2533 154.739 37.576ZM146.483 40.808C147.72 40.808 148.638 40.5307 149.235 39.976C149.832 39.4 150.131 38.6 150.131 37.576C150.131 35.4 148.915 34.312 146.483 34.312H142.931V40.808H146.483ZM161.44 29.32V53H156.96V29.32H161.44ZM163.754 44.072C163.754 42.28 164.106 40.6907 164.81 39.304C165.535 37.9173 166.506 36.8507 167.722 36.104C168.959 35.3573 170.335 34.984 171.85 34.984C173.173 34.984 174.325 35.2507 175.306 35.784C176.309 36.3173 177.109 36.9893 177.706 37.8V35.272H182.218V53H177.706V50.408C177.13 51.24 176.33 51.9333 175.306 52.488C174.303 53.0213 173.141 53.288 171.818 53.288C170.325 53.288 168.959 52.904 167.722 52.136C166.506 51.368 165.535 50.2907 164.81 48.904C164.106 47.496 163.754 45.8853 163.754 44.072ZM177.706 44.136C177.706 43.048 177.493 42.12 177.066 41.352C176.639 40.5627 176.063 39.9653 175.338 39.56C174.613 39.1333 173.834 38.92 173.002 38.92C172.17 38.92 171.402 39.1227 170.698 39.528C169.994 39.9333 169.418 40.5307 168.97 41.32C168.543 42.088 168.33 43.0053 168.33 44.072C168.33 45.1387 168.543 46.0773 168.97 46.888C169.418 47.6773 169.994 48.2853 170.698 48.712C171.423 49.1387 172.191 49.352 173.002 49.352C173.834 49.352 174.613 49.1493 175.338 48.744C176.063 48.3173 176.639 47.72 177.066 46.952C177.493 46.1627 177.706 45.224 177.706 44.136ZM190.85 38.952V47.528C190.85 48.1253 190.988 48.5627 191.266 48.84C191.564 49.096 192.055 49.224 192.738 49.224H194.818V53H192.002C188.226 53 186.338 51.1653 186.338 47.496V38.952H184.226V35.272H186.338V30.888H190.85V35.272H194.818V38.952H190.85ZM205.208 38.952H202.104V53H197.56V38.952H195.544V35.272H197.56V34.376C197.56 32.2 198.179 30.6 199.416 29.576C200.653 28.552 202.52 28.072 205.016 28.136V31.912C203.928 31.8907 203.171 32.072 202.744 32.456C202.317 32.84 202.104 33.5333 202.104 34.536V35.272H205.208V38.952ZM215.023 53.288C213.316 53.288 211.78 52.9147 210.415 52.168C209.05 51.4 207.972 50.3227 207.183 48.936C206.415 47.5493 206.031 45.9493 206.031 44.136C206.031 42.3227 206.426 40.7227 207.215 39.336C208.026 37.9493 209.124 36.8827 210.511 36.136C211.898 35.368 213.444 34.984 215.151 34.984C216.858 34.984 218.404 35.368 219.791 36.136C221.178 36.8827 222.266 37.9493 223.055 39.336C223.866 40.7227 224.271 42.3227 224.271 44.136C224.271 45.9493 223.855 47.5493 223.023 48.936C222.212 50.3227 221.103 51.4 219.695 52.168C218.308 52.9147 216.751 53.288 215.023 53.288ZM215.023 49.384C215.834 49.384 216.591 49.192 217.295 48.808C218.02 48.4027 218.596 47.8053 219.023 47.016C219.45 46.2267 219.663 45.2667 219.663 44.136C219.663 42.4507 219.215 41.16 218.319 40.264C217.444 39.3467 216.367 38.888 215.087 38.888C213.807 38.888 212.73 39.3467 211.855 40.264C211.002 41.16 210.575 42.4507 210.575 44.136C210.575 45.8213 210.991 47.1227 211.823 48.04C212.676 48.936 213.743 49.384 215.023 49.384ZM231.077 38.024C231.653 37.0853 232.4 36.3493 233.317 35.816C234.256 35.2827 235.323 35.016 236.517 35.016V39.72H235.333C233.925 39.72 232.859 40.0507 232.133 40.712C231.429 41.3733 231.077 42.5253 231.077 44.168V53H226.597V35.272H231.077V38.024ZM260.591 35.016C262.767 35.016 264.516 35.688 265.839 37.032C267.183 38.3547 267.855 40.2107 267.855 42.6V53H263.375V43.208C263.375 41.8213 263.023 40.7653 262.319 40.04C261.615 39.2933 260.655 38.92 259.439 38.92C258.223 38.92 257.252 39.2933 256.527 40.04C255.823 40.7653 255.471 41.8213 255.471 43.208V53H250.991V43.208C250.991 41.8213 250.639 40.7653 249.935 40.04C249.231 39.2933 248.271 38.92 247.055 38.92C245.818 38.92 244.836 39.2933 244.111 40.04C243.407 40.7653 243.055 41.8213 243.055 43.208V53H238.575V35.272H243.055V37.416C243.631 36.6693 244.367 36.0827 245.263 35.656C246.18 35.2293 247.183 35.016 248.271 35.016C249.658 35.016 250.895 35.3147 251.983 35.912C253.071 36.488 253.914 37.32 254.511 38.408C255.087 37.384 255.919 36.5627 257.007 35.944C258.116 35.3253 259.311 35.016 260.591 35.016Z" fill="#0F2137"/>
<path fill-rule="evenodd" clip-rule="evenodd" d="M270.143 23.2676C274.461 12.1146 282.35 -3.13749 289.427 0.566492C296.714 4.37984 283.914 16.23 273.077 25.3103C271.555 26.5855 269.426 25.1192 270.143 23.2676ZM278.069 30.8751C284.031 26.3765 291.925 21.859 294.432 25.8134C297.051 29.945 288.001 32.3965 279.512 33.9994C277.561 34.3678 276.484 32.0711 278.069 30.8751Z" fill="#1AC587"/>
<path d="M24.9471 65.248H15.9471V82H24.9471V80.2H18.1311V74.44H24.2271V72.64H18.1311V67.048H24.9471V65.248ZM26.7157 75.4C26.7157 79.576 29.3797 82.216 33.1237 82.216C36.3877 82.216 38.5237 80.392 39.1957 77.776H36.8437C36.3637 79.432 35.0677 80.368 33.1237 80.368C30.7237 80.368 28.9477 78.664 28.9477 75.4C28.9477 72.184 30.7237 70.48 33.1237 70.48C35.0677 70.48 36.3877 71.488 36.8437 73.072H39.1957C38.5237 70.312 36.3877 68.632 33.1237 68.632C29.3797 68.632 26.7157 71.272 26.7157 75.4ZM53.8699 75.4C53.8699 71.248 50.9659 68.632 47.2219 68.632C43.5019 68.632 40.5739 71.248 40.5739 75.4C40.5739 79.576 43.4059 82.216 47.1259 82.216C50.8699 82.216 53.8699 79.576 53.8699 75.4ZM42.8059 75.4C42.8059 72.088 44.8939 70.528 47.1979 70.528C49.4539 70.528 51.6379 72.088 51.6379 75.4C51.6379 78.736 49.4059 80.296 47.1259 80.296C44.8459 80.296 42.8059 78.736 42.8059 75.4ZM75.0054 82H77.1654V74.248C77.1654 70.48 74.8374 68.608 71.8374 68.608C69.8214 68.608 67.9494 69.64 67.1814 71.536C66.3174 69.568 64.5174 68.608 62.3574 68.608C60.6294 68.608 59.0694 69.352 58.2054 70.744V68.848H56.0214V82H58.2054V74.752C58.2054 71.92 59.7174 70.504 61.9254 70.504C64.0854 70.504 65.5254 71.872 65.5254 74.56V82H67.6854V74.752C67.6854 71.92 69.1974 70.504 71.4054 70.504C73.5654 70.504 75.0054 71.872 75.0054 74.56V82ZM85.62 70.48C87.876 70.48 89.796 71.896 89.772 74.464H81.468C81.708 71.896 83.484 70.48 85.62 70.48ZM91.764 77.944H89.412C88.932 79.36 87.684 80.368 85.716 80.368C83.484 80.368 81.612 78.904 81.444 76.24H91.956C92.004 75.784 92.028 75.4 92.028 74.92C92.028 71.32 89.532 68.632 85.716 68.632C81.876 68.632 79.212 71.248 79.212 75.4C79.212 79.576 81.972 82.216 85.716 82.216C88.98 82.216 91.092 80.344 91.764 77.944ZM96.3748 74.848C96.3748 71.8 97.9588 70.864 100.047 70.864H100.623V68.608C98.5348 68.608 97.1188 69.52 96.3748 70.984V68.848H94.1908V82H96.3748V74.848ZM101.608 75.4C101.608 79.576 104.272 82.216 108.016 82.216C111.28 82.216 113.416 80.392 114.088 77.776H111.736C111.256 79.432 109.96 80.368 108.016 80.368C105.616 80.368 103.84 78.664 103.84 75.4C103.84 72.184 105.616 70.48 108.016 70.48C109.96 70.48 111.28 71.488 111.736 73.072H114.088C113.416 70.312 111.28 68.632 108.016 68.632C104.272 68.632 101.608 71.272 101.608 75.4ZM121.874 70.48C124.13 70.48 126.05 71.896 126.026 74.464H117.722C117.962 71.896 119.738 70.48 121.874 70.48ZM128.018 77.944H125.666C125.186 79.36 123.938 80.368 121.97 80.368C119.738 80.368 117.866 78.904 117.698 76.24H128.21C128.258 75.784 128.282 75.4 128.282 74.92C128.282 71.32 125.786 68.632 121.97 68.632C118.13 68.632 115.466 71.248 115.466 75.4C115.466 79.576 118.226 82.216 121.97 82.216C125.234 82.216 127.346 80.344 128.018 77.944ZM135.307 75.376C135.307 79.456 138.019 82.216 141.523 82.216C143.947 82.216 145.651 80.968 146.443 79.552V82H148.651V68.848H146.443V71.248C145.675 69.88 143.995 68.632 141.547 68.632C138.019 68.632 135.307 71.272 135.307 75.376ZM146.443 75.4C146.443 78.496 144.379 80.296 141.979 80.296C139.579 80.296 137.539 78.472 137.539 75.376C137.539 72.28 139.579 70.528 141.979 70.528C144.379 70.528 146.443 72.352 146.443 75.4ZM152.102 78.4C152.102 81.04 153.422 82 155.75 82H157.718V80.152H156.11C154.766 80.152 154.286 79.696 154.286 78.4V70.648H157.718V68.848H154.286V65.536H152.102V68.848H150.398V70.648H152.102V78.4ZM165.323 82H167.507V68.848H165.323V82ZM166.451 66.712C167.243 66.712 167.891 66.064 167.891 65.224C167.891 64.384 167.243 63.736 166.451 63.736C165.611 63.736 164.963 64.384 164.963 65.224C164.963 66.064 165.611 66.712 166.451 66.712ZM170.989 78.4C170.989 81.04 172.309 82 174.637 82H176.605V80.152H174.997C173.653 80.152 173.173 79.696 173.173 78.4V70.648H176.605V68.848H173.173V65.536H170.989V68.848H169.285V70.648H170.989V78.4ZM187.987 78.424C187.891 73.72 180.259 75.424 180.259 72.304C180.259 71.248 181.219 70.48 182.827 70.48C184.579 70.48 185.587 71.44 185.683 72.76H187.867C187.723 70.192 185.803 68.632 182.899 68.632C179.971 68.632 178.075 70.288 178.075 72.304C178.075 77.2 185.851 75.496 185.851 78.424C185.851 79.504 184.891 80.368 183.163 80.368C181.315 80.368 180.187 79.408 180.067 78.136H177.811C177.955 80.536 180.115 82.216 183.187 82.216C186.091 82.216 187.987 80.584 187.987 78.424ZM196.437 82H198.621V70.648H201.381V68.848H198.621V67.912C198.621 66.208 199.269 65.488 201.237 65.488V63.664C197.877 63.664 196.437 64.984 196.437 67.912V68.848H194.733V70.648H196.437V82ZM203.207 82H205.391V68.848H203.207V82ZM204.335 66.712C205.127 66.712 205.775 66.064 205.775 65.224C205.775 64.384 205.127 63.736 204.335 63.736C203.495 63.736 202.847 64.384 202.847 65.224C202.847 66.064 203.495 66.712 204.335 66.712ZM218.017 82H220.177V74.248C220.177 70.48 217.849 68.608 214.801 68.608C213.025 68.608 211.441 69.352 210.577 70.72V68.848H208.393V82H210.577V74.728C210.577 71.896 212.113 70.504 214.345 70.504C216.553 70.504 218.017 71.872 218.017 74.56V82ZM228.617 70.48C230.873 70.48 232.793 71.896 232.769 74.464H224.465C224.705 71.896 226.481 70.48 228.617 70.48ZM234.761 77.944H232.409C231.929 79.36 230.681 80.368 228.713 80.368C226.481 80.368 224.609 78.904 224.441 76.24H234.953C235.001 75.784 235.025 75.4 235.025 74.92C235.025 71.32 232.529 68.632 228.713 68.632C224.873 68.632 222.209 71.248 222.209 75.4C222.209 79.576 224.969 82.216 228.713 82.216C231.977 82.216 234.089 80.344 234.761 77.944ZM246.644 78.424C246.548 73.72 238.916 75.424 238.916 72.304C238.916 71.248 239.876 70.48 241.484 70.48C243.236 70.48 244.244 71.44 244.34 72.76H246.524C246.38 70.192 244.46 68.632 241.556 68.632C238.628 68.632 236.732 70.288 236.732 72.304C236.732 77.2 244.508 75.496 244.508 78.424C244.508 79.504 243.548 80.368 241.82 80.368C239.972 80.368 238.844 79.408 238.724 78.136H236.468C236.612 80.536 238.772 82.216 241.844 82.216C244.748 82.216 246.644 80.584 246.644 78.424ZM249.487 78.4C249.487 81.04 250.807 82 253.135 82H255.103V80.152H253.495C252.151 80.152 251.671 79.696 251.671 78.4V70.648H255.103V68.848H251.671V65.536H249.487V68.848H247.783V70.648H249.487V78.4Z" fill="#6337BE"/>
<path d="M24 104C89.9016 90.2877 199.084 90.71 246 98.0929" stroke="#6337BE" stroke-width="4" stroke-linecap="round" stroke-linejoin="round"/>
</svg>
