<svg width="28" height="28" viewBox="0 0 28 28" fill="none" xmlns="http://www.w3.org/2000/svg">
<path d="M4.94116 8.23529V18.1176C4.94116 20.8465 7.15339 23.0588 9.88232 23.0588H19.7646V24.4064C19.7646 26.7358 18.5005 27.9999 16.1711 27.9999H3.59357C1.26413 27.9999 0 26.7358 0 24.4064V11.8289C0 9.49942 1.26413 8.23529 3.59357 8.23529H4.94116Z" fill="#F66565"/>
<path opacity="0.5" fill-rule="evenodd" clip-rule="evenodd" d="M11.8288 0H24.4063C26.7357 0 27.9999 1.26413 27.9999 3.59357V16.1711C27.9999 18.5005 26.7357 19.7646 24.4063 19.7646H11.8288C9.49936 19.7646 8.23523 18.5005 8.23523 16.1711V3.59357C8.23523 1.26413 9.49936 0 11.8288 0Z" fill="#F66565"/>
</svg>
