<svg width="167" height="29" viewBox="0 0 167 29" fill="none" xmlns="http://www.w3.org/2000/svg">
<path d="M39.4119 9.90915H36.9489V6.77279H33.3182V9.90915H31.5284V12.6364H33.3182V19.4546C33.3011 22.0199 35.0483 23.2898 37.6818 23.179C38.6193 23.1449 39.2841 22.9574 39.6506 22.8381L39.0795 20.1364C38.9006 20.1705 38.517 20.2557 38.1761 20.2557C37.4517 20.2557 36.9489 19.983 36.9489 18.9773V12.6364H39.4119V9.90915ZM45.6889 15.4319C45.6974 13.7444 46.7287 12.7557 48.2116 12.7557C49.6861 12.7557 50.5554 13.7018 50.5469 15.3126V23.0001H54.1776V14.6648C54.1861 11.5967 52.3793 9.7387 49.652 9.7387C47.6662 9.7387 46.3366 10.6762 45.7401 12.2188H45.5866V5.54552H42.0582V23.0001H45.6889V15.4319ZM63.0007 23.2557C66.2393 23.2557 68.4212 21.679 68.9325 19.2501L65.5746 19.0285C65.2081 20.0256 64.2706 20.5455 63.0604 20.5455C61.245 20.5455 60.0945 19.3438 60.0945 17.3921V17.3836H69.0092V16.3864C69.0092 11.9376 66.3161 9.7387 62.8558 9.7387C59.0036 9.7387 56.5064 12.4745 56.5064 16.5143C56.5064 20.6648 58.9695 23.2557 63.0007 23.2557ZM60.0945 15.1336C60.1712 13.6421 61.3047 12.4489 62.9155 12.4489C64.4922 12.4489 65.5831 13.5739 65.5916 15.1336H60.0945Z" fill="#262469"/>
<path d="M71.6428 27.9092H74.1911V20.9631H74.3445C74.8047 21.7984 75.7422 23.2557 78.1286 23.2557C81.299 23.2557 83.6001 20.716 83.6001 16.4802C83.6001 12.2359 81.2649 9.7387 78.103 9.7387C75.674 9.7387 74.7962 11.2217 74.3445 12.0313H74.1314V9.90915H71.6428V27.9092ZM74.1399 16.4546C74.1399 13.7188 75.3331 11.9035 77.5575 11.9035C79.8672 11.9035 81.0263 13.8552 81.0263 16.4546C81.0263 19.0796 79.8331 21.0824 77.5575 21.0824C75.3672 21.0824 74.1399 19.2074 74.1399 16.4546ZM89.0036 5.54552H86.4553V23.0001H89.0036V5.54552ZM96.2415 23.2898C98.4062 23.2898 99.625 22.1904 100.111 21.2103H100.213V23.0001H102.702V14.3069C102.702 10.4972 99.7017 9.7387 97.6222 9.7387C95.2528 9.7387 93.071 10.6932 92.2188 13.0796L94.6136 13.6251C94.9886 12.6961 95.9432 11.8012 97.6562 11.8012C99.3011 11.8012 100.145 12.662 100.145 14.1449V14.2046C100.145 15.1336 99.1903 15.1165 96.8381 15.3893C94.358 15.679 91.8182 16.3268 91.8182 19.3012C91.8182 21.8751 93.7528 23.2898 96.2415 23.2898ZM96.7955 21.2444C95.3551 21.2444 94.3153 20.5967 94.3153 19.3353C94.3153 17.9717 95.5256 17.4859 97 17.2898C97.8267 17.179 99.7869 16.9574 100.153 16.591V18.2785C100.153 19.8296 98.9176 21.2444 96.7955 21.2444ZM112.207 9.90915H109.522V6.77279H106.974V9.90915H105.056V11.9546H106.974V19.6847C106.965 22.0626 108.781 23.2131 110.792 23.1705C111.602 23.162 112.147 23.0086 112.445 22.8978L111.985 20.7927C111.815 20.8268 111.499 20.9035 111.09 20.9035C110.263 20.9035 109.522 20.6307 109.522 19.1563V11.9546H112.207V9.90915ZM121.256 9.90915H118.435V8.73302C118.435 7.57392 118.912 6.94324 120.156 6.94324C120.685 6.94324 121.06 7.06256 121.298 7.13927L121.895 5.07677C121.537 4.9404 120.795 4.72733 119.764 4.72733C117.693 4.72733 115.878 5.93756 115.878 8.39211V9.90915H113.858V11.9546H115.878V23.0001H118.435V11.9546H121.256V9.90915ZM128.884 23.2643C132.574 23.2643 134.986 20.5626 134.986 16.5143C134.986 12.4404 132.574 9.7387 128.884 9.7387C125.193 9.7387 122.781 12.4404 122.781 16.5143C122.781 20.5626 125.193 23.2643 128.884 23.2643ZM128.892 21.1251C126.48 21.1251 125.355 19.0199 125.355 16.5057C125.355 14.0001 126.48 11.8694 128.892 11.8694C131.287 11.8694 132.412 14.0001 132.412 16.5057C132.412 19.0199 131.287 21.1251 128.892 21.1251ZM137.83 23.0001H140.379V15.0057C140.379 13.2927 141.7 12.0569 143.506 12.0569C144.035 12.0569 144.631 12.1506 144.836 12.2103V9.77279C144.58 9.7387 144.077 9.71313 143.754 9.71313C142.219 9.71313 140.907 10.5824 140.43 11.9887H140.293V9.90915H137.83V23.0001ZM147.041 23.0001H149.589V14.929C149.589 13.1648 150.825 11.9376 152.274 11.9376C153.689 11.9376 154.669 12.8751 154.669 14.2984V23.0001H157.209V14.6563C157.209 13.0796 158.172 11.9376 159.834 11.9376C161.18 11.9376 162.288 12.6876 162.288 14.4603V23.0001H164.837V14.2217C164.837 11.2302 163.166 9.7387 160.797 9.7387C158.913 9.7387 157.499 10.6421 156.868 12.0398H156.732C156.161 10.608 154.959 9.7387 153.212 9.7387C151.482 9.7387 150.195 10.5995 149.649 12.0398H149.487V9.90915H147.041V23.0001Z" fill="#6337BE"/>
<path fill-rule="evenodd" clip-rule="evenodd" d="M7.57736 23.7256C12.5539 20.359 16.6928 15.7711 19.6439 10.3497C19.7579 10.1324 19.7827 9.87488 19.7125 9.6376C19.6422 9.40031 19.483 9.2041 19.2722 9.09498L13.5017 6.09186C13.098 5.88312 12.6109 6.04147 12.3869 6.45423C9.46939 11.6397 5.1554 15.7808 3.43323e-05 18.3444C1.90135 20.376 4.00687 22.1805 6.27888 23.7256C6.67617 23.9886 7.18008 23.9886 7.57736 23.7256Z" fill="#6337BE"/>
<path fill-rule="evenodd" clip-rule="evenodd" d="M12.1522 23.7256C17.1291 20.3599 21.268 15.7717 24.2181 10.3497C24.3325 10.1329 24.3579 9.8759 24.2885 9.6387C24.219 9.40149 24.0608 9.20493 23.8508 9.09498L18.0762 6.09186C17.6726 5.88312 17.1855 6.04147 16.9615 6.45423C14.0447 11.6403 9.73076 15.7815 4.5752 18.3444C6.47527 20.3773 8.58083 22.1819 10.8537 23.7256C11.251 23.9886 11.7549 23.9886 12.1522 23.7256Z" fill="#FFFBFA"/>
<path fill-rule="evenodd" clip-rule="evenodd" d="M13.6212 23.7256C18.5981 20.3599 22.737 15.7717 25.6871 10.3497C25.8015 10.1329 25.8269 9.8759 25.7574 9.6387C25.688 9.40149 25.5298 9.20493 25.3198 9.09498L19.5452 6.09186C19.1416 5.88312 18.6545 6.04147 18.4305 6.45423C15.5137 11.6403 11.1998 15.7815 6.04419 18.3444C7.94426 20.3773 10.0498 22.1819 12.3227 23.7256C12.72 23.9886 13.2239 23.9886 13.6212 23.7256Z" fill="#1AC587"/>
</svg>
